<svg viewBox="0 0 66 65" xmlns="http://www.w3.org/2000/svg" xmlns:xlink="http://www.w3.org/1999/xlink"><style>:root&gt;svg{display:none}:root&gt;svg:target{display:block}</style><svg viewBox="0 0 8 5" id="arrow-down" xmlns="http://www.w3.org/2000/svg"><path id="aForma_1_копия_3" data-name="Forma 1 копия 3" d="M210 13.022a1.036 1.036 0 0 1 .272-.7.97.97 0 0 1 1.4-.036l2.332 2.286 2.315-2.283a.97.97 0 0 1 1.4.032 1.045 1.045 0 0 1-.031 1.444l-3 2.957a.97.97 0 0 1-1.368 0l-3.016-2.957a1.034 1.034 0 0 1-.304-.743z" transform="translate(-210 -12)" fill="#fff" fill-rule="evenodd"/></svg><svg viewBox="0 0 8 5" id="arrow-down-black" xmlns="http://www.w3.org/2000/svg"><path id="bForma_1_копия_3" data-name="Forma 1 копия 3" d="M210 13.022a1.036 1.036 0 0 1 .272-.7.97.97 0 0 1 1.4-.036l2.332 2.286 2.315-2.283a.97.97 0 0 1 1.4.032 1.045 1.045 0 0 1-.031 1.444l-3 2.957a.97.97 0 0 1-1.368 0l-3.016-2.957a1.034 1.034 0 0 1-.304-.743z" transform="translate(-210 -12)" fill="#000" fill-rule="evenodd"/></svg><svg viewBox="0 0 10 16" id="arrow-left" xmlns="http://www.w3.org/2000/svg"><path data-name="Forma 1 копия 5" class="ccls-1" d="M7.954 0a2.075 2.075 0 0 1 1.409.545 1.938 1.938 0 0 1 .073 2.8L4.863 8l4.569 4.626a1.937 1.937 0 0 1-.065 2.8 2.091 2.091 0 0 1-2.89-.062L.561 9.374a1.938 1.938 0 0 1 0-2.734L6.476.613A2.076 2.076 0 0 1 7.954 0z"/></svg><svg viewBox="0 0 18 17" id="basket" xmlns="http://www.w3.org/2000/svg"><path data-name="Forma 1" class="dcls-1" d="M18 2.205H4.72l-.38-2.2H.98a.981.981 0 0 0-.98.98v.975h2.69l1.73 10.046a.5.5 0 0 0 .48.4h11.63a.98.98 0 0 0 .98-.98v-.978H6.15L5.91 9.06h8.98a2.4 2.4 0 0 0 2.29-1.931zM7.94 13.61a1.694 1.694 0 1 1-1.7 1.693 1.694 1.694 0 0 1 1.7-1.692zm4.19 1.693a1.7 1.7 0 1 0 1.7-1.694 1.7 1.7 0 0 0-1.7 1.691z"/></svg><svg viewBox="0 0 14 11" id="blocks-arrow" xmlns="http://www.w3.org/2000/svg"><path data-name="Shape 1 копия" class="ecls-1" d="M13.776 4.986L8.72.211a.8.8 0 0 0-1.083 0l-.459.434a.694.694 0 0 0-.224.511.709.709 0 0 0 .224.518l2.949 2.792H.756A.728.728 0 0 0 0 5.177v.613a.754.754 0 0 0 .756.743h9.405L7.178 9.341a.688.688 0 0 0 0 1.016l.459.432a.8.8 0 0 0 1.084 0l5.056-4.775a.7.7 0 0 0-.001-1.028z"/></svg><svg viewBox="0 0 12 8.97" id="checkbox" xmlns="http://www.w3.org/2000/svg"><path id="fForma_1_копия" data-name="Forma 1 копия" d="M380.138 2429.95a.492.492 0 0 1-.138-.32.47.47 0 0 1 .138-.31l.646-.63a.455.455 0 0 1 .647 0l.046.04 2.538 2.66a.227.227 0 0 0 .323 0l6.185-6.26h.046a.454.454 0 0 1 .646 0l.646.63a.427.427 0 0 1 0 .63l-7.384 7.47a.443.443 0 0 1-.646 0l-3.6-3.78z" transform="translate(-380 -2425.03)" fill="#e85022" fill-rule="evenodd"/></svg><svg viewBox="0 0 12.03 7.031" id="count-down" xmlns="http://www.w3.org/2000/svg"><path id="gForma_1_копия_8" data-name="Forma 1 копия 8" d="M1036 388.437a1.424 1.424 0 0 1 .41-.99 1.534 1.534 0 0 1 2.11-.051l3.5 3.215 3.48-3.212a1.521 1.521 0 0 1 2.1.046 1.4 1.4 0 0 1-.05 2.031l-4.5 4.158a1.522 1.522 0 0 1-2.05 0l-4.53-4.158a1.409 1.409 0 0 1-.47-1.039z" transform="translate(-1036 -387)" fill="#313131" fill-rule="evenodd"/></svg><svg viewBox="0 0 24 24" id="download" xmlns="http://www.w3.org/2000/svg"><path id="hForma_1_копия_7" data-name="Forma 1 копия 7" d="M1008 2418.99a12.01 12.01 0 1 0 12.01 12.01 12.026 12.026 0 0 0-12.01-12.01zm5.65 13.87l-5.65 5.66-5.66-5.66a1.534 1.534 0 1 1 2.17-2.17l1.96 1.96v-7a1.53 1.53 0 1 1 3.06 0v7l1.96-1.96a1.531 1.531 0 0 1 2.16 2.17z" transform="translate(-996 -2419)" fill="#e85022" fill-rule="evenodd"/></svg><svg viewBox="0 0 14 14" id="home" xmlns="http://www.w3.org/2000/svg"><path id="iForma_1" data-name="Forma 1" d="M127.821 130.831a.708.708 0 0 0-.054-.988l-6.254-5.658a.761.761 0 0 0-1.017.013l-6.275 5.947a.7.7 0 0 0-.03.986l.157.169a.671.671 0 0 0 .942.075l.469-.434v6.359a.693.693 0 0 0 .682.706h2.446a.694.694 0 0 0 .683-.706v-4.45h3.12v4.45a.658.658 0 0 0 .641.706h2.592a.694.694 0 0 0 .683-.706v-6.27l.289.262a.6.6 0 0 0 .749-.259z" transform="translate(-114 -124)" fill="#585858" fill-rule="evenodd"/></svg><svg viewBox="0 0 11 14" id="item-inner-down" xmlns="http://www.w3.org/2000/svg"><path data-name="Shape 1 копия 2" class="jcls-1" d="M6.014 13.776l4.775-5.056a.8.8 0 0 0 0-1.083l-.434-.46a.7.7 0 0 0-.511-.223.712.712 0 0 0-.518.223l-2.792 2.95V.756A.728.728 0 0 0 5.823 0H5.21a.753.753 0 0 0-.743.756v9.4L1.659 7.173a.688.688 0 0 0-1.016 0l-.432.459a.8.8 0 0 0 0 1.083l4.775 5.056a.7.7 0 0 0 1.028.005z"/></svg><svg viewBox="0 0 24 19" id="like" xmlns="http://www.w3.org/2000/svg"><path fill-rule="evenodd" d="M23.968 6.802c.021-.203.032-.41.032-.618C24 2.769 21.191 0 17.726 0a6.282 6.282 0 0 0-5.727 3.657A6.28 6.28 0 0 0 6.273 0C2.808 0 0 2.769 0 6.184c0 .208.01.415.03.618 0 0 .123 6.088 12.046 12.213C23.998 12.89 23.968 6.802 23.968 6.802zM6.451 1.363c.57 0 1.03.454 1.03 1.014 0 .561-.46 1.015-1.03 1.015a1.02 1.02 0 0 1-1.028-1.015c0-.56.459-1.014 1.028-1.014zm-3.217 7.59a1.073 1.073 0 0 1-1.323-.735 6.7 6.7 0 0 1-.257-1.564c-.096-2.5 1.467-3.73 1.544-3.791a1.084 1.084 0 0 1 1.506.189c.362.458.28 1.112-.174 1.473-.056.046-.734.646-.729 1.931.002.347.052.743.178 1.193a1.056 1.056 0 0 1-.745 1.304z"/></svg><svg viewBox="0 0 14 18" id="location" xmlns="http://www.w3.org/2000/svg"><path d="M7 0a6.962 6.962 0 0 0-7 6.908 6.821 6.821 0 0 0 1.507 4.278L7 18l5.493-6.815A6.821 6.821 0 0 0 14 6.908 6.962 6.962 0 0 0 7 0zm0 9.925a3.11 3.11 0 1 1 3.151-3.11A3.134 3.134 0 0 1 7 9.925z" fill="#e85022" fill-rule="evenodd"/></svg><svg viewBox="0 0 32 23.625" id="mebel-1" xmlns="http://www.w3.org/2000/svg"><path data-name="Forma 1 копия 9" class="mcls-1" d="M25.99 23.637a1.256 1.256 0 0 1-1.249-1.257v-1.257h1.249c1.991 0 2.5-.681 2.5-.681v1.938a1.256 1.256 0 0 1-1.249 1.257H25.99zm-21.229 0a1.255 1.255 0 0 1-1.248-1.257v-1.938s.507.681 2.5.681h1.249v1.257a1.256 1.256 0 0 1-1.249 1.257H4.764zM32 10.437a2.88 2.88 0 0 0-5.585-1.014l-1.37 3.089a31.02 31.02 0 0 0-8.967-1.375 32.661 32.661 0 0 0-9.134 1.382l-1.3-2.9a2.884 2.884 0 1 0-3.525 3.607l.534 4.626c.565 1.961 3.354 2.011 3.354 2.011h19.98s2.79-.05 3.354-2.014l.534-4.627A2.893 2.893 0 0 0 32 10.437zM2.888 6.021a4.408 4.408 0 0 1 4.164 3.064l.631 1.415a38.934 38.934 0 0 1 8.4-.871 38.085 38.085 0 0 1 8.233.838l.717-1.621a4.405 4.405 0 0 1 4.084-2.825c.133 0 .259.027.389.039v-.024a6.029 6.029 0 0 0-6.01-6.051H8.51A6.03 6.03 0 0 0 2.5 6.036v.024c.13-.01.256-.039.388-.039z"/></svg><svg viewBox="0 0 24.343 32" id="mebel-2" xmlns="http://www.w3.org/2000/svg"><path data-name="Forma 1 копия 8" class="ncls-1" d="M12.167 27.911v-7.048h5.864a.517.517 0 0 0 .356 0c1.461-7.577 6.933-17.121 5.79-19.375s-4.53-1.676-5.529-.059c-.763 1.237-1.4 2.054-2.346 8.558-2.021-.666-5.791-1.567-8.3-.093a8.1 8.1 0 0 0-3.644 5.146c-1.7-.152-3.018-.108-3.5.28-1.963 1.575 0 5.543 0 5.543h2.544v2.21h-2.8V24.4h3.4v-3.535h6.119v7.048c-4.084.235-7.5 1.856-8.987 4.088h20.015c-1.477-2.234-4.897-3.855-8.982-4.09zM9.224 12c1.7-1 4.96-.182 6.741.446-.174 1.345-.36 2.88-.559 4.628-2.352-.555-5.706-1.294-8.624-1.736A5.554 5.554 0 0 1 9.224 12z"/></svg><svg viewBox="0 0 20.188 32" id="mebel-3" xmlns="http://www.w3.org/2000/svg"><path data-name="Forma 1 копия 10" class="ocls-1" d="M1.569 21.228h17.058v2.729H1.569v-2.729zm.026 4.6a6.864 6.864 0 0 0 6.9 6.168h3.211a6.866 6.866 0 0 0 6.9-6.168H1.595zm0 0zm11.57-15.064a6.94 6.94 0 0 0 7.02-6.841V0h-4.03a7.058 7.058 0 0 0-6.057 3.388A7.06 7.06 0 0 0 4.04 0H.011v3.927a6.94 6.94 0 0 0 7.019 6.841h2.106v4.607H1.569v3.978h17.058v-3.978H11.06v-4.607h2.1z"/></svg><svg viewBox="0 0 32 30.625" id="mebel-4" xmlns="http://www.w3.org/2000/svg"><path data-name="Shape 1 копия 3" class="pcls-1" d="M1.64 27.673h28.72v2.939H1.64v-2.943zM0 .012v8.594h32V.012H0zm16 6.827a1.588 1.588 0 1 1 1.6-1.588A1.59 1.59 0 0 1 16 6.834zm14.1 3.651H0v6.71h32v-6.71h-1.9zM16 15.433a1.588 1.588 0 1 1 1.6-1.588 1.59 1.59 0 0 1-1.6 1.583zm14.1 3.651H0v6.71h32v-6.71h-1.9zM16 24.022a1.588 1.588 0 1 1 1.6-1.588 1.59 1.59 0 0 1-1.6 1.588z"/></svg><svg viewBox="0 0 32 32" id="mebel-5" xmlns="http://www.w3.org/2000/svg"><path data-name="Forma 1 копия 7" class="qcls-1" d="M30.63 0h-7.27a1.367 1.367 0 0 0-1.37 1.369v27.618a1.369 1.369 0 0 0 1.05 1.335v.87a.861.861 0 0 0 .86.808.849.849 0 0 0 .85-.787.168.168 0 0 0 .01-.069v-.787h4.47v.856a.865.865 0 0 0 .86.787.855.855 0 0 0 .85-.808v-.87A1.367 1.367 0 0 0 32 28.987V1.369A1.367 1.367 0 0 0 30.63 0zm-7.39 2.293h7.51v1.712h-7.51V2.293zm1.81 12.885a.855.855 0 1 1-.85-.856.864.864 0 0 1 .85.856zm-1.81 12.885v-1.711h7.51v1.711h-7.51zM19.64 0h-7.28a1.373 1.373 0 0 0-1.37 1.369v27.618a1.377 1.377 0 0 0 1.06 1.335v.87a.861.861 0 0 0 .86.808.849.849 0 0 0 .85-.787v-.856h4.48v.856a.849.849 0 0 0 .85.787.864.864 0 0 0 .86-.808v-.87a1.377 1.377 0 0 0 1.06-1.335V1.369A1.373 1.373 0 0 0 19.64 0zm-7.39 2.293h7.5v1.712h-7.5V2.293zm1.83 12.885a.86.86 0 1 1-.86-.856.872.872 0 0 1 .86.856zm-1.83 12.885v-1.711h7.5v1.711h-7.5zm-9.48 3.15v-.856h4.47v.787a.168.168 0 0 0 .01.069.849.849 0 0 0 .85.787.864.864 0 0 0 .86-.808v-.87a1.369 1.369 0 0 0 1.05-1.335V1.369A1.367 1.367 0 0 0 8.64 0H1.37A1.367 1.367 0 0 0 0 1.369v27.618a1.367 1.367 0 0 0 1.06 1.335v.87a.852.852 0 0 0 .85.808.865.865 0 0 0 .86-.787zM1.25 2.293h7.51v1.712H1.25V2.293zm1.83 12.885a.855.855 0 1 1-.85-.856.864.864 0 0 1 .85.856zM1.25 26.352h7.51v1.711H1.25v-1.711z"/></svg><svg viewBox="0 0 15.32 32" id="mebel-6" xmlns="http://www.w3.org/2000/svg"><path data-name="Forma 1 копия 6" class="rcls-1" d="M13.73 4.226a1.581 1.581 0 0 0-1.59 1.575c0 .022.01.042.01.064L9.07 7.513V4.071a2.253 2.253 0 0 0 .91-1.8 2.29 2.29 0 1 0-3.45 1.944v3.447l-3.36-1.8c0-.022.01-.043.01-.064a1.6 1.6 0 1 0-.8 1.359l4.15 2.22v3.688l-2.15-1.15c0-.021.01-.042.01-.064a1.59 1.59 0 1 0-1.59 1.574 1.606 1.606 0 0 0 .79-.215l2.94 1.574v11.382l-4.57 4.539a.749.749 0 0 0 0 1.07.758.758 0 0 0 1.07 0l4.01-3.973v2.461a.76.76 0 0 0 1.52 0v-2.522h.12l4.06 4.034a.758.758 0 0 0 .54.222.775.775 0 0 0 .54-.222.749.749 0 0 0 0-1.07l-4.69-4.654c-.02-.018-.04-.025-.06-.041V14.741l2.85-1.528a1.567 1.567 0 1 0-.8-1.359c0 .022.01.043.01.064l-2.06 1.1v-3.79l3.87-2.072a1.575 1.575 0 1 0 .79-2.93z"/></svg><svg viewBox="0 0 11 14" id="more" xmlns="http://www.w3.org/2000/svg"><path d="M6.014 13.78l4.775-5.06A.782.782 0 0 0 11 8.18a.765.765 0 0 0-.211-.54l-.434-.46a.682.682 0 0 0-.511-.23.7.7 0 0 0-.518.23l-2.792 2.95V.76A.726.726 0 0 0 5.823 0h-.614a.752.752 0 0 0-.742.76v9.4L1.659 7.18a.676.676 0 0 0-1.016 0l-.432.46A.76.76 0 0 0 0 8.18a.779.779 0 0 0 .212.54l4.775 5.06a.709.709 0 0 0 1.027 0z" fill-rule="evenodd"/></svg><svg viewBox="0 0 17 18" id="phone" xmlns="http://www.w3.org/2000/svg"><path id="tForma_1" data-name="Forma 1" d="M398.1 67.528c-1.1-.93-2.22-1.493-3.308-.564l-.65.561c-.475.407-1.359 2.31-4.777-1.57s-1.385-4.479-.909-4.883l.654-.562c1.083-.931.674-2.1-.107-3.309l-.471-.73c-.785-1.2-1.638-1.994-2.724-1.065l-.586.506a5.428 5.428 0 0 0-2.147 3.6c-.391 2.556.844 5.482 3.673 8.693s5.593 4.827 8.213 4.8a5.546 5.546 0 0 0 3.905-1.595l.589-.506c1.082-.929.41-1.875-.693-2.806z" transform="translate(-383 -55)" fill="#e85022" fill-rule="evenodd"/></svg><svg viewBox="0 0 18 18" id="profile" xmlns="http://www.w3.org/2000/svg"><path data-name="Forma 1" class="ucls-1" d="M14.62 12.375H13.5a2.252 2.252 0 0 1-2.25-2.25V9.4a5.787 5.787 0 0 0 1.08-2.031.586.586 0 0 1 .22-.272 1.4 1.4 0 0 0 .19-1.675.565.565 0 0 1-.12-.244c0-.66.01-1.32 0-1.98a3.3 3.3 0 0 0-.8-2.213 3.14 3.14 0 0 0-1.71-.881 5.674 5.674 0 0 0-2.45.057 2.956 2.956 0 0 0-1.74 1.181 3.409 3.409 0 0 0-.54 1.782c-.01.671 0 1.344 0 2.017a.72.72 0 0 1-.15.337 1.383 1.383 0 0 0 .31 1.706.664.664 0 0 1 .2.376 5.329 5.329 0 0 0 1.01 1.815v.747a2.252 2.252 0 0 1-2.25 2.25H3.37A6.038 6.038 0 0 0 0 15.75v1.125A1.121 1.121 0 0 0 1.12 18h15.75A1.123 1.123 0 0 0 18 16.875V15.75a6.038 6.038 0 0 0-3.38-3.375z"/></svg><svg viewBox="0 0 18.03 18" id="search" xmlns="http://www.w3.org/2000/svg"><path data-name="Forma 1" class="vcls-1" d="M17.65 15.965l-3.13-3.179A7.972 7.972 0 1 0 8 16.213a7.88 7.88 0 0 0 4.89-1.706l3.1 3.143a1.16 1.16 0 0 0 1.66 0 1.2 1.2 0 0 0 0-1.685zm-6.18-9.052a.911.911 0 0 1-.41.1.94.94 0 0 1-.85-.536 2.953 2.953 0 0 0-2.68-1.7.954.954 0 0 1 0-1.907 4.815 4.815 0 0 1 4.37 2.771.954.954 0 0 1-.43 1.272z"/></svg><svg viewBox="0 0 24 24" id="social-fb" xmlns="http://www.w3.org/2000/svg"><path fill-rule="evenodd" data-name="Forma 1" class="wcls-1" d="M17.97 0H6.01A6.024 6.024 0 0 0 0 6.02V18a6.02 6.02 0 0 0 6.01 6h11.98A6.024 6.024 0 0 0 24 17.98V6.02A6.054 6.054 0 0 0 17.97 0zM15.7 4.57h-1.92c-2.16 0-3.55 1.49-3.55 3.8v1.75H8.3a.3.3 0 0 0-.3.31v2.54a.31.31 0 0 0 .3.31h1.93v6.41a.31.31 0 0 0 .3.31h2.52a.3.3 0 0 0 .3-.31v-6.41h2.26a.31.31 0 0 0 .3-.31v-2.54a.31.31 0 0 0-.09-.22.288.288 0 0 0-.21-.09h-2.26V8.63a.876.876 0 0 1 1.06-1.07h1.29a.312.312 0 0 0 .3-.32V4.89a.312.312 0 0 0-.3-.32z"/></svg><svg viewBox="0 0 24 24" id="social-in" xmlns="http://www.w3.org/2000/svg"><path class="xcls-1" d="M14.12 10.46a2.6 2.6 0 0 0-4.26 0 2.671 2.671 0 0 0-.5 1.54 2.63 2.63 0 1 0 5.26 0 2.671 2.671 0 0 0-.5-1.54zm1.66.02a3.744 3.744 0 0 1 .3 1.52 4.09 4.09 0 1 1-8.18 0 3.675 3.675 0 0 1 .3-1.52H5.9v6.11a1.538 1.538 0 0 0 1.5 1.5h9.18a1.538 1.538 0 0 0 1.5-1.5v-6.11h-2.3zm1.62-4.23h-2.21v2.53h2.51V6.23zM17.97 0H6.01A6.024 6.024 0 0 0 0 6.02V18a6.02 6.02 0 0 0 6.01 6h11.98A6.024 6.024 0 0 0 24 17.98V6.02A6.054 6.054 0 0 0 17.97 0zm1.44 10.46v6.13a2.792 2.792 0 0 1-2.83 2.84H7.4a2.792 2.792 0 0 1-2.83-2.84V7.41A2.792 2.792 0 0 1 7.4 4.57h9.18a2.792 2.792 0 0 1 2.83 2.84v3.05z"/></svg><svg viewBox="0 0 66 65" id="warranty" xmlns="http://www.w3.org/2000/svg"><path id="yForma_1" data-name="Forma 1" d="M416.988 2249.73a1.91 1.91 0 0 0-.759-1.33l-5.229-3.92 1.9-6.22a1.9 1.9 0 0 0-.177-1.52 1.937 1.937 0 0 0-1.241-.91l-6.387-1.47-.815-6.45a1.953 1.953 0 0 0-2.294-1.65l-6.441 1.23-3.392-5.56a1.945 1.945 0 0 0-2.775-.58l-5.378 3.71-5.382-3.71a1.943 1.943 0 0 0-2.774.58l-3.391 5.56-6.441-1.23a1.954 1.954 0 0 0-2.3 1.65l-.815 6.45-6.387 1.47a1.937 1.937 0 0 0-1.241.91 1.909 1.909 0 0 0-.177 1.52l1.9 6.22-5.228 3.92a1.909 1.909 0 0 0-.3 2.79l4.29 4.91-3.165 5.69a1.893 1.893 0 0 0-.147 1.52 1.94 1.94 0 0 0 1.023 1.15l5.937 2.76-.556 6.46a1.9 1.9 0 0 0 .493 1.45 1.934 1.934 0 0 0 1.4.64l6.557.13 2.151 6.13a1.925 1.925 0 0 0 1.045 1.13 1.976 1.976 0 0 0 1.546.02l6.044-2.53 4.484 4.74a1.953 1.953 0 0 0 2.836 0l4.485-4.74 6.043 2.53a1.973 1.973 0 0 0 1.545-.02 1.926 1.926 0 0 0 1.046-1.13l2.151-6.13 6.557-.13a1.934 1.934 0 0 0 1.4-.64 1.9 1.9 0 0 0 .492-1.45l-.555-6.46 5.937-2.76a1.934 1.934 0 0 0 1.023-1.15 1.893 1.893 0 0 0-.147-1.52l-3.165-5.69 4.29-4.91a1.906 1.906 0 0 0 .484-1.46zM384 2271.91a18.411 18.411 0 1 1 18.6-18.41 18.526 18.526 0 0 1-18.6 18.41zm0-32.97a14.561 14.561 0 1 0 14.71 14.56 14.652 14.652 0 0 0-14.71-14.56zm7.62 11.8l-8.327 8.24a1.942 1.942 0 0 1-2.749 0l-4.164-4.12a1.911 1.911 0 0 1 0-2.72 1.961 1.961 0 0 1 2.749 0l2.789 2.76 6.953-6.88a1.961 1.961 0 0 1 2.749 0 1.911 1.911 0 0 1 0 2.72z" transform="translate(-351 -2221)" fill="#e85022" fill-rule="evenodd"/></svg></svg>