<svg xmlns="http://www.w3.org/2000/svg" width="18" height="17" viewBox="0 0 18 17">
  <path id="Forma_1" data-name="Forma 1" class="cls-1" d="M1248,58.205h-13.28l-0.38-2.2h-3.36a0.981,0.981,0,0,0-.98.98V57.96h2.69l1.73,10.046a0.5,0.5,0,0,0,.48.4h11.63a0.98,0.98,0,0,0,.98-0.98V66.448h-11.36l-0.24-1.388h8.98a2.4,2.4,0,0,0,2.29-1.931Zm-10.06,11.405a1.694,1.694,0,1,1-1.7,1.693A1.694,1.694,0,0,1,1237.94,69.611Zm4.19,1.693a1.7,1.7,0,1,0,1.7-1.694A1.7,1.7,0,0,0,1242.13,71.3Z" transform="translate(-1230 -56)"/>
</svg>
