<svg xmlns="http://www.w3.org/2000/svg" width="14" height="11" viewBox="0 0 14 11">
  <path id="Shape_1_копия" data-name="Shape 1 копия" class="cls-1" d="M462.776,911.986l-5.056-4.775a0.8,0.8,0,0,0-1.083,0l-0.459.434a0.694,0.694,0,0,0-.224.511,0.709,0.709,0,0,0,.224.518l2.949,2.792h-9.371a0.728,0.728,0,0,0-.756.711v0.613a0.754,0.754,0,0,0,.756.743h9.405l-2.983,2.808a0.688,0.688,0,0,0,0,1.016l0.459,0.432a0.8,0.8,0,0,0,1.084,0l5.056-4.775A0.7,0.7,0,0,0,462.776,911.986Z" transform="translate(-449 -907)"/>
</svg>
