<svg xmlns="http://www.w3.org/2000/svg" width="12" height="8.97" viewBox="0 0 12 8.97">
  <defs>
    <style>
      .cls-1 {
        fill: #e85022;
        fill-rule: evenodd;
      }
    </style>
  </defs>
  <path id="Forma_1_копия" data-name="Forma 1 копия" class="cls-1" d="M380.138,2429.95a0.492,0.492,0,0,1-.138-0.32,0.47,0.47,0,0,1,.138-0.31l0.646-.63a0.455,0.455,0,0,1,.647,0l0.046,0.04,2.538,2.66a0.227,0.227,0,0,0,.323,0l6.185-6.26h0.046a0.454,0.454,0,0,1,.646,0l0.646,0.63a0.427,0.427,0,0,1,0,.63h0l-7.384,7.47a0.443,0.443,0,0,1-.646,0l-3.6-3.78Z" transform="translate(-380 -2425.03)"/>
</svg>
