<svg 
 xmlns="http://www.w3.org/2000/svg"
 xmlns:xlink="http://www.w3.org/1999/xlink"
 width="18px" height="15px">
<path fill-rule="evenodd"  fill="rgb(232, 80, 34)"
 d="M13.507,8.300 C14.465,7.591 15.627,6.746 16.996,5.764 C17.377,5.487 17.712,5.178 18.000,4.837 L18.000,13.065 L13.507,8.300 ZM16.283,4.624 C14.658,5.820 13.431,6.723 12.598,7.336 C12.141,7.673 11.800,7.924 11.582,8.086 C11.550,8.110 11.499,8.148 11.432,8.199 C11.359,8.254 11.268,8.324 11.155,8.411 C10.937,8.578 10.757,8.712 10.612,8.815 C10.468,8.918 10.294,9.034 10.090,9.162 C9.886,9.289 9.693,9.385 9.512,9.449 C9.332,9.513 9.164,9.545 9.010,9.545 L9.000,9.545 L8.990,9.545 C8.836,9.545 8.669,9.513 8.488,9.449 C8.307,9.385 8.115,9.289 7.910,9.162 C7.706,9.034 7.532,8.919 7.388,8.815 C7.244,8.712 7.063,8.578 6.846,8.411 C6.733,8.324 6.641,8.254 6.569,8.199 C6.501,8.148 6.451,8.110 6.419,8.086 C6.138,7.876 5.799,7.624 5.405,7.333 C4.943,6.992 4.405,6.596 3.787,6.142 C2.642,5.300 1.955,4.794 1.728,4.624 C1.313,4.325 0.921,3.915 0.553,3.393 C0.184,2.871 0.000,2.387 0.000,1.939 C0.000,1.385 0.139,0.924 0.417,0.554 C0.695,0.185 1.091,0.001 1.607,0.001 L16.393,0.001 C16.828,0.001 17.205,0.168 17.523,0.501 C17.841,0.835 18.000,1.236 18.000,1.705 C18.000,2.266 17.836,2.802 17.508,3.313 C17.180,3.825 16.771,4.261 16.283,4.624 ZM4.495,8.298 L-0.000,13.065 L-0.000,4.837 C0.295,5.185 0.633,5.494 1.015,5.764 C2.437,6.789 3.596,7.633 4.495,8.298 ZM6.006,9.439 C6.388,9.737 6.698,9.969 6.936,10.136 C7.173,10.303 7.490,10.473 7.885,10.647 C8.280,10.822 8.648,10.908 8.990,10.908 L9.000,10.908 L9.010,10.908 C9.351,10.908 9.720,10.822 10.115,10.647 C10.510,10.473 10.826,10.303 11.064,10.136 C11.302,9.969 11.612,9.737 11.993,9.439 C12.105,9.352 12.224,9.262 12.346,9.169 L17.446,14.578 C17.148,14.857 16.797,14.999 16.393,14.999 L1.607,14.999 C1.203,14.999 0.852,14.857 0.554,14.578 L5.654,9.168 C5.782,9.265 5.900,9.356 6.006,9.439 Z"/>
</svg>