<svg xmlns="http://www.w3.org/2000/svg" width="14" height="14" viewBox="0 0 14 14">
  <defs>
    <style>
      .cls-1 {
        fill: #585858;
        fill-rule: evenodd;
      }
    </style>
  </defs>
  <path id="Forma_1" data-name="Forma 1" class="cls-1" d="M127.821,130.831a0.708,0.708,0,0,0-.054-0.988l-6.254-5.658a0.761,0.761,0,0,0-1.017.013l-6.275,5.947a0.7,0.7,0,0,0-.03.986l0.157,0.169a0.671,0.671,0,0,0,.942.075l0.469-.434V137.3a0.693,0.693,0,0,0,.682.706h2.446a0.694,0.694,0,0,0,.683-0.706V132.85h3.12V137.3a0.658,0.658,0,0,0,.641.706h2.592a0.694,0.694,0,0,0,.683-0.706V131.03l0.289,0.262a0.6,0.6,0,0,0,.749-0.259Z" transform="translate(-114 -124)"/>
</svg>
