<svg xmlns="http://www.w3.org/2000/svg" width="11" height="14" viewBox="0 0 11 14">
  <path id="Shape_1_копия_2" data-name="Shape 1 копия 2" class="cls-1" d="M895.014,600.776l4.775-5.056a0.8,0.8,0,0,0,0-1.083l-0.434-.46a0.7,0.7,0,0,0-.511-0.223,0.712,0.712,0,0,0-.518.223l-2.792,2.95v-9.371a0.728,0.728,0,0,0-.711-0.756H894.21a0.753,0.753,0,0,0-.743.756v9.4l-2.808-2.983a0.688,0.688,0,0,0-1.016,0l-0.432.459a0.8,0.8,0,0,0,0,1.083l4.775,5.056A0.7,0.7,0,0,0,895.014,600.776Z" transform="translate(-889 -587)"/>
</svg>
