<svg 
 xmlns="http://www.w3.org/2000/svg"
 xmlns:xlink="http://www.w3.org/1999/xlink"
 width="24px" height="19px">
<path fill-rule="evenodd"
 d="M23.968,6.802 C23.989,6.599 24.000,6.392 24.000,6.184 C24.000,2.769 21.191,0.000 17.726,0.000 C15.175,0.000 12.980,1.503 11.999,3.657 C11.019,1.502 8.823,0.000 6.273,0.000 C2.808,0.000 -0.000,2.769 -0.000,6.184 C-0.000,6.392 0.010,6.599 0.030,6.802 C0.030,6.802 0.153,12.890 12.076,19.015 L12.076,19.015 C23.998,12.890 23.968,6.802 23.968,6.802 ZM6.451,1.363 C7.021,1.363 7.481,1.817 7.481,2.377 C7.481,2.938 7.021,3.392 6.451,3.392 C5.882,3.392 5.423,2.939 5.423,2.377 C5.423,1.817 5.882,1.363 6.451,1.363 ZM3.234,8.953 C3.137,8.980 3.040,8.992 2.945,8.992 C2.475,8.992 2.043,8.685 1.911,8.218 C1.750,7.650 1.673,7.129 1.654,6.654 C1.558,4.154 3.121,2.924 3.198,2.863 C3.668,2.506 4.343,2.590 4.704,3.052 C5.066,3.510 4.984,4.164 4.530,4.525 C4.474,4.571 3.796,5.171 3.801,6.456 C3.803,6.803 3.853,7.199 3.979,7.649 C4.139,8.213 3.804,8.796 3.234,8.953 Z"/>
</svg>