<svg xmlns="http://www.w3.org/2000/svg" width="32" height="30.625" viewBox="0 0 32 30.625">
  <path id="Shape_1_копия_3" data-name="Shape 1 копия 3" class="cls-1" d="M1187.64,185.361h28.72V188.3h-28.72v-2.943ZM1186,157.7v8.594h32V157.7h-32Zm16,6.827a1.588,1.588,0,1,1,1.6-1.588A1.59,1.59,0,0,1,1202,164.522Zm14.1,3.651H1186v6.71h32v-6.71h-1.9Zm-14.1,4.943a1.588,1.588,0,1,1,1.6-1.588A1.59,1.59,0,0,1,1202,173.116Zm14.1,3.651H1186v6.71h32v-6.71h-1.9ZM1202,181.71a1.588,1.588,0,1,1,1.6-1.588A1.59,1.59,0,0,1,1202,181.71Z" transform="translate(-1186 -157.688)"/>
</svg>
