<svg xmlns="http://www.w3.org/2000/svg" width="24.343" height="32" viewBox="0 0 24.343 32">
  <path id="Forma_1_копия_8" data-name="Forma 1 копия 8" class="cls-1" d="M198.355,372.911v-7.048h5.864a0.517,0.517,0,0,0,.356,0c1.461-7.577,6.933-17.121,5.79-19.375s-4.53-1.676-5.529-.059c-0.763,1.237-1.4,2.054-2.346,8.558-2.021-.666-5.791-1.567-8.3-0.093a8.1,8.1,0,0,0-3.644,5.146c-1.7-.152-3.018-0.108-3.5.28-1.963,1.575,0,5.543,0,5.543h2.544v2.21h-2.8V369.4h3.4v-3.535h6.119v7.048c-4.084.235-7.5,1.856-8.987,4.088h20.015C205.86,374.767,202.44,373.146,198.355,372.911ZM195.412,357c1.7-1,4.96-.182,6.741.446-0.174,1.345-.36,2.88-0.559,4.628-2.352-.555-5.706-1.294-8.624-1.736A5.554,5.554,0,0,1,195.412,357Z" transform="translate(-186.188 -345)"/>
</svg>
