<svg xmlns="http://www.w3.org/2000/svg" width="15.32" height="32" viewBox="0 0 15.32 32">
  <path id="Forma_1_копия_6" data-name="Forma 1 копия 6" class="cls-1" d="M1208.07,541.226a1.581,1.581,0,0,0-1.59,1.575c0,0.022.01,0.042,0.01,0.064l-3.08,1.648v-3.442a2.253,2.253,0,0,0,.91-1.8,2.29,2.29,0,1,0-3.45,1.944v3.447l-3.36-1.8c0-.022.01-0.043,0.01-0.064a1.6,1.6,0,1,0-.8,1.359l4.15,2.22v3.688l-2.15-1.15c0-.021.01-0.042,0.01-0.064a1.59,1.59,0,1,0-1.59,1.574,1.606,1.606,0,0,0,.79-0.215l2.94,1.574v11.382l-4.57,4.539a0.749,0.749,0,0,0,0,1.07,0.758,0.758,0,0,0,1.07,0l4.01-3.973v2.461a0.76,0.76,0,0,0,1.52,0v-2.522h0.12l4.06,4.034a0.758,0.758,0,0,0,.54.222,0.775,0.775,0,0,0,.54-0.222,0.749,0.749,0,0,0,0-1.07l-4.69-4.654c-0.02-.018-0.04-0.025-0.06-0.041V551.741l2.85-1.528a1.567,1.567,0,1,0-.8-1.359c0,0.022.01,0.043,0.01,0.064l-2.06,1.1v-3.79l3.87-2.072A1.575,1.575,0,1,0,1208.07,541.226Z" transform="translate(-1194.34 -537)"/>
</svg>
