<svg xmlns="http://www.w3.org/2000/svg" width="20.188" height="32" viewBox="0 0 20.188 32">
  <path id="Forma_1_копия_10" data-name="Forma 1 копия 10" class="cls-1" d="M189.819,558.228h17.058v2.729H189.819v-2.729Zm0.026,4.6a6.864,6.864,0,0,0,6.9,6.168h3.211a6.866,6.866,0,0,0,6.9-6.168H189.845Zm0,0h0Zm11.57-15.064a6.94,6.94,0,0,0,7.02-6.841V537h-4.03a7.058,7.058,0,0,0-6.057,3.388A7.06,7.06,0,0,0,192.29,537h-4.029v3.927a6.94,6.94,0,0,0,7.019,6.841h2.106v4.607h-7.567v3.978h17.058v-3.978H199.31v-4.607h2.1Z" transform="translate(-188.25 -537)"/>
</svg>
