<svg xmlns="http://www.w3.org/2000/svg" width="32" height="32" viewBox="0 0 32 32">
  <path id="Forma_1_копия_7" data-name="Forma 1 копия 7" class="cls-1" d="M1216.63,345h-7.27a1.367,1.367,0,0,0-1.37,1.369v27.618a1.369,1.369,0,0,0,1.05,1.335v0.87a0.861,0.861,0,0,0,.86.808,0.849,0.849,0,0,0,.85-0.787,0.168,0.168,0,0,0,.01-0.069v-0.787h4.47v0.856a0.865,0.865,0,0,0,.86.787,0.855,0.855,0,0,0,.85-0.808v-0.87a1.367,1.367,0,0,0,1.06-1.335V346.369A1.367,1.367,0,0,0,1216.63,345Zm-7.39,2.293h7.51v1.712h-7.51v-1.712Zm1.81,12.885a0.855,0.855,0,1,1-.85-0.856A0.864,0.864,0,0,1,1211.05,360.178Zm-1.81,12.885v-1.711h7.51v1.711h-7.51ZM1205.64,345h-7.28a1.373,1.373,0,0,0-1.37,1.369v27.618a1.377,1.377,0,0,0,1.06,1.335v0.87a0.861,0.861,0,0,0,.86.808,0.849,0.849,0,0,0,.85-0.787v-0.856h4.48v0.856a0.849,0.849,0,0,0,.85.787,0.864,0.864,0,0,0,.86-0.808v-0.87a1.377,1.377,0,0,0,1.06-1.335V346.369A1.373,1.373,0,0,0,1205.64,345Zm-7.39,2.293h7.5v1.712h-7.5v-1.712Zm1.83,12.885a0.86,0.86,0,1,1-.86-0.856A0.872,0.872,0,0,1,1200.08,360.178Zm-1.83,12.885v-1.711h7.5v1.711h-7.5Zm-9.48,3.15v-0.856h4.47v0.787a0.168,0.168,0,0,0,.01.069,0.849,0.849,0,0,0,.85.787,0.864,0.864,0,0,0,.86-0.808v-0.87a1.369,1.369,0,0,0,1.05-1.335V346.369a1.367,1.367,0,0,0-1.37-1.369h-7.27a1.367,1.367,0,0,0-1.37,1.369v27.618a1.367,1.367,0,0,0,1.06,1.335v0.87a0.852,0.852,0,0,0,.85.808A0.865,0.865,0,0,0,1188.77,376.213Zm-1.52-28.92h7.51v1.712h-7.51v-1.712Zm1.83,12.885a0.855,0.855,0,1,1-.85-0.856A0.864,0.864,0,0,1,1189.08,360.178Zm-1.83,11.174h7.51v1.711h-7.51v-1.711Z" transform="translate(-1186 -345)"/>
</svg>
