<svg xmlns="http://www.w3.org/2000/svg" width="32" height="23.625" viewBox="0 0 32 23.625">
  <path id="Forma_1_копия_9" data-name="Forma 1 копия 9" class="cls-1" d="M207.99,184.825a1.256,1.256,0,0,1-1.249-1.257v-1.257h1.249c1.991,0,2.5-.681,2.5-0.681v1.938a1.256,1.256,0,0,1-1.249,1.257H207.99Zm-21.229,0a1.255,1.255,0,0,1-1.248-1.257V181.63s0.507,0.681,2.5.681h1.249v1.257a1.256,1.256,0,0,1-1.249,1.257h-1.249ZM214,171.625a2.88,2.88,0,0,0-5.585-1.014l-1.37,3.089a31.02,31.02,0,0,0-8.967-1.375,32.661,32.661,0,0,0-9.134,1.382l-1.3-2.9a2.884,2.884,0,1,0-3.525,3.607l0.534,4.626c0.565,1.961,3.354,2.011,3.354,2.011h19.98s2.79-.05,3.354-2.014l0.534-4.627A2.893,2.893,0,0,0,214,171.625Zm-29.112-4.416a4.408,4.408,0,0,1,4.164,3.064l0.631,1.415a38.934,38.934,0,0,1,8.4-.871,38.085,38.085,0,0,1,8.233.838l0.717-1.621a4.405,4.405,0,0,1,4.084-2.825c0.133,0,.259.027,0.389,0.039,0-.008,0-0.017,0-0.024a6.029,6.029,0,0,0-6.01-6.051H190.51a6.03,6.03,0,0,0-6.01,6.051c0,0.007,0,.016,0,0.024C184.63,167.238,184.756,167.209,184.888,167.209Z" transform="translate(-182 -161.188)"/>
</svg>
