<svg xmlns="http://www.w3.org/2000/svg" width="11" height="14" viewBox="0 0 11 14">
  <defs>
    <style>
      .cls-1 {
        fill-rule: evenodd;
      }
    </style>
  </defs>
  <path class="cls-1" d="M776.014,1704.78l4.775-5.06a0.782,0.782,0,0,0,.211-0.54,0.765,0.765,0,0,0-.211-0.54l-0.434-.46a0.682,0.682,0,0,0-.511-0.23,0.7,0.7,0,0,0-.518.23l-2.792,2.95v-9.37a0.726,0.726,0,0,0-.711-0.76h-0.614a0.752,0.752,0,0,0-.742.76v9.4l-2.808-2.98a0.676,0.676,0,0,0-1.016,0l-0.432.46a0.76,0.76,0,0,0-.211.54,0.779,0.779,0,0,0,.212.54l4.775,5.06A0.709,0.709,0,0,0,776.014,1704.78Z" transform="translate(-770 -1691)"/>
</svg>
