<svg 
 xmlns="http://www.w3.org/2000/svg"
 xmlns:xlink="http://www.w3.org/1999/xlink"
 width="18px" height="18px">
<path fill-rule="evenodd"  fill="rgb(232, 80, 34)"
 d="M16.303,1.696 C14.041,-0.566 10.361,-0.566 8.100,1.696 C6.555,3.241 6.018,5.518 6.687,7.583 L0.154,14.116 C0.056,14.215 -0.000,14.349 -0.000,14.489 L-0.000,17.473 C-0.000,17.764 0.236,18.000 0.527,18.000 L3.510,18.000 C3.651,18.000 3.784,17.944 3.883,17.845 L4.629,17.099 C4.743,16.985 4.798,16.826 4.780,16.666 L4.687,15.864 L5.797,15.760 C6.050,15.736 6.249,15.537 6.273,15.284 L6.377,14.174 L7.179,14.267 C7.327,14.287 7.477,14.237 7.590,14.137 C7.702,14.037 7.767,13.894 7.767,13.743 L7.767,12.762 L8.731,12.762 C8.871,12.762 9.005,12.706 9.103,12.607 L10.456,11.273 C12.521,11.942 14.758,11.446 16.303,9.900 C18.565,7.638 18.565,3.958 16.303,1.696 ZM14.811,5.425 C14.194,6.042 13.191,6.042 12.574,5.425 C11.957,4.808 11.957,3.805 12.574,3.188 C13.191,2.571 14.194,2.571 14.811,3.188 C15.428,3.805 15.428,4.808 14.811,5.425 Z"/>
</svg>