<svg xmlns="http://www.w3.org/2000/svg" width="17" height="18" viewBox="0 0 17 18">
  <defs>
    <style>
      .cls-1 {
        fill: #e85022;
        fill-rule: evenodd;
      }
    </style>
  </defs>
  <path id="Forma_1" data-name="Forma 1" class="cls-1" d="M398.1,67.528c-1.1-.93-2.22-1.493-3.308-0.564l-0.65.561c-0.475.407-1.359,2.31-4.777-1.57s-1.385-4.479-.909-4.883l0.654-.562c1.083-.931.674-2.1-0.107-3.309l-0.471-.73c-0.785-1.2-1.638-1.994-2.724-1.065l-0.586.506a5.428,5.428,0,0,0-2.147,3.6c-0.391,2.556.844,5.482,3.673,8.693s5.593,4.827,8.213,4.8a5.546,5.546,0,0,0,3.905-1.595l0.589-.506c1.082-.929.41-1.875-0.693-2.806Z" transform="translate(-383 -55)"/>
</svg>
