<svg xmlns="http://www.w3.org/2000/svg" width="18" height="18" viewBox="0 0 18 18">
  <path id="Forma_1" data-name="Forma 1" class="cls-1" d="M1281.62,67.375h-1.12a2.252,2.252,0,0,1-2.25-2.25V64.4a5.787,5.787,0,0,0,1.08-2.031,0.586,0.586,0,0,1,.22-0.272,1.4,1.4,0,0,0,.19-1.675,0.565,0.565,0,0,1-.12-0.244c0-.66.01-1.32,0-1.98a3.3,3.3,0,0,0-.8-2.213,3.14,3.14,0,0,0-1.71-.881,5.674,5.674,0,0,0-2.45.057,2.956,2.956,0,0,0-1.74,1.181,3.409,3.409,0,0,0-.54,1.782c-0.01.671,0,1.344,0,2.017a0.72,0.72,0,0,1-.15.337,1.383,1.383,0,0,0,.31,1.706,0.664,0.664,0,0,1,.2.376,5.329,5.329,0,0,0,1.01,1.815v0.747a2.252,2.252,0,0,1-2.25,2.25h-1.13A6.038,6.038,0,0,0,1267,70.75v1.125A1.121,1.121,0,0,0,1268.12,73h15.75a1.123,1.123,0,0,0,1.13-1.125V70.75A6.038,6.038,0,0,0,1281.62,67.375Z" transform="translate(-1267 -55)"/>
</svg>
