<svg 
 xmlns="http://www.w3.org/2000/svg"
 xmlns:xlink="http://www.w3.org/1999/xlink"
 width="18px" height="18px">
<path fill-rule="evenodd"  fill="rgb(232, 80, 34)"
 d="M14.625,12.375 L13.500,12.375 C12.257,12.375 11.250,11.367 11.250,10.125 L11.250,9.402 C11.748,8.810 12.105,8.111 12.327,7.371 C12.350,7.246 12.469,7.185 12.550,7.099 C12.980,6.669 13.065,5.942 12.742,5.424 C12.698,5.346 12.619,5.278 12.623,5.180 C12.623,4.521 12.627,3.860 12.622,3.201 C12.605,2.405 12.377,1.577 11.819,0.987 C11.369,0.511 10.750,0.228 10.112,0.106 C9.305,-0.047 8.462,-0.040 7.663,0.164 C6.971,0.338 6.320,0.744 5.918,1.345 C5.562,1.867 5.406,2.501 5.380,3.127 C5.370,3.798 5.378,4.471 5.376,5.144 C5.391,5.278 5.277,5.369 5.225,5.481 C4.921,6.033 5.055,6.785 5.544,7.187 C5.668,7.272 5.691,7.428 5.736,7.563 C5.949,8.228 6.303,8.842 6.750,9.378 L6.750,10.125 C6.750,11.367 5.743,12.375 4.500,12.375 L3.375,12.375 C3.375,12.375 1.336,12.937 -0.000,15.750 L-0.000,16.875 C-0.000,17.497 0.503,18.000 1.125,18.000 L16.875,18.000 C17.497,18.000 18.000,17.497 18.000,16.875 L18.000,15.750 C16.664,12.937 14.625,12.375 14.625,12.375 Z"/>
</svg>