<svg xmlns="http://www.w3.org/2000/svg" width="18.03" height="18" viewBox="0 0 18.03 18">
  <path id="Forma_1" data-name="Forma 1" class="cls-1" d="M1168.65,70.965l-3.13-3.179a7.972,7.972,0,1,0-6.52,3.427,7.88,7.88,0,0,0,4.89-1.706l3.1,3.143a1.16,1.16,0,0,0,1.66,0A1.2,1.2,0,0,0,1168.65,70.965Zm-6.18-9.052a0.911,0.911,0,0,1-.41.1,0.94,0.94,0,0,1-.85-0.536,2.953,2.953,0,0,0-2.68-1.7,0.954,0.954,0,0,1,0-1.907,4.815,4.815,0,0,1,4.37,2.771A0.954,0.954,0,0,1,1162.47,61.913Z" transform="translate(-1151 -55)"/>
</svg>
