<svg xmlns="http://www.w3.org/2000/svg" width="24" height="24" viewBox="0 0 24 24">

  <path id="Forma_1" fill-rule="evenodd" data-name="Forma 1" class="cls-1" d="M1277.97,2362h-11.96a6.024,6.024,0,0,0-6.01,6.02V2380a6.02,6.02,0,0,0,6.01,6h11.98a6.024,6.024,0,0,0,6.01-6.02v-11.96A6.054,6.054,0,0,0,1277.97,2362Zm-2.27,4.57h-1.92c-2.16,0-3.55,1.49-3.55,3.8v1.75h-1.93a0.3,0.3,0,0,0-.3.31v2.54a0.31,0.31,0,0,0,.3.31h1.93v6.41a0.31,0.31,0,0,0,.3.31h2.52a0.3,0.3,0,0,0,.3-0.31v-6.41h2.26a0.31,0.31,0,0,0,.3-0.31v-2.54a0.31,0.31,0,0,0-.09-0.22,0.288,0.288,0,0,0-.21-0.09h-2.26v-1.49a0.876,0.876,0,0,1,1.06-1.07h1.29a0.312,0.312,0,0,0,.3-0.32v-2.35A0.312,0.312,0,0,0,1275.7,2366.57Z" transform="translate(-1260 -2362)"/>
</svg>
