<svg xmlns="http://www.w3.org/2000/svg" width="24" height="24" viewBox="0 0 24 24">
  <path class="cls-1" d="M1227.12,2372.46a2.6,2.6,0,0,0-4.26,0,2.671,2.671,0,0,0-.5,1.54,2.63,2.63,0,1,0,5.26,0A2.671,2.671,0,0,0,1227.12,2372.46Zm1.66,0.02a3.744,3.744,0,0,1,.3,1.52,4.09,4.09,0,1,1-8.18,0,3.675,3.675,0,0,1,.3-1.52h-2.3v6.11a1.538,1.538,0,0,0,1.5,1.5h9.18a1.538,1.538,0,0,0,1.5-1.5v-6.11h-2.3Zm1.62-4.23h-2.21v2.53h2.51v-2.55Zm0.57-6.25h-11.96a6.024,6.024,0,0,0-6.01,6.02V2380a6.02,6.02,0,0,0,6.01,6h11.98a6.024,6.024,0,0,0,6.01-6.02v-11.96A6.054,6.054,0,0,0,1230.97,2362Zm1.44,10.46h0v6.13a2.792,2.792,0,0,1-2.83,2.84h-9.18a2.792,2.792,0,0,1-2.83-2.84v-9.18a2.792,2.792,0,0,1,2.83-2.84h9.18a2.792,2.792,0,0,1,2.83,2.84v3.05h0Z" transform="translate(-1213 -2362)"/>
</svg>
