<svg xmlns="http://www.w3.org/2000/svg" width="66" height="65" viewBox="0 0 66 65">
  <defs>
    <style>
      .cls-1 {
        fill: #e85022;
        fill-rule: evenodd;
      }
    </style>
  </defs>
  <path id="Forma_1" data-name="Forma 1" class="cls-1" d="M416.988,2249.73a1.91,1.91,0,0,0-.759-1.33L411,2244.48l1.9-6.22a1.9,1.9,0,0,0-.177-1.52,1.937,1.937,0,0,0-1.241-.91l-6.387-1.47-0.815-6.45a1.953,1.953,0,0,0-2.294-1.65l-6.441,1.23-3.392-5.56a1.945,1.945,0,0,0-2.775-.58L384,2225.06l-5.382-3.71a1.943,1.943,0,0,0-2.774.58l-3.391,5.56-6.441-1.23a1.954,1.954,0,0,0-2.3,1.65l-0.815,6.45-6.387,1.47a1.937,1.937,0,0,0-1.241.91,1.909,1.909,0,0,0-.177,1.52l1.9,6.22-5.228,3.92a1.909,1.909,0,0,0-.3,2.79l4.29,4.91-3.165,5.69a1.893,1.893,0,0,0-.147,1.52,1.94,1.94,0,0,0,1.023,1.15l5.937,2.76-0.556,6.46a1.9,1.9,0,0,0,.493,1.45,1.934,1.934,0,0,0,1.4.64l6.557,0.13,2.151,6.13a1.925,1.925,0,0,0,1.045,1.13,1.976,1.976,0,0,0,1.546.02l6.044-2.53,4.484,4.74a1.953,1.953,0,0,0,2.836,0l4.485-4.74,6.043,2.53a1.973,1.973,0,0,0,1.545-.02,1.926,1.926,0,0,0,1.046-1.13l2.151-6.13,6.557-.13a1.934,1.934,0,0,0,1.4-.64,1.9,1.9,0,0,0,.492-1.45l-0.555-6.46,5.937-2.76a1.934,1.934,0,0,0,1.023-1.15,1.893,1.893,0,0,0-.147-1.52l-3.165-5.69,4.29-4.91A1.906,1.906,0,0,0,416.988,2249.73ZM384,2271.91a18.411,18.411,0,1,1,18.6-18.41A18.526,18.526,0,0,1,384,2271.91Zm0-32.97a14.561,14.561,0,1,0,14.71,14.56A14.652,14.652,0,0,0,384,2238.94Zm7.62,11.8-8.327,8.24a1.942,1.942,0,0,1-2.749,0l-4.164-4.12a1.911,1.911,0,0,1,0-2.72,1.961,1.961,0,0,1,2.749,0l2.789,2.76,6.953-6.88a1.961,1.961,0,0,1,2.749,0A1.911,1.911,0,0,1,391.62,2250.74Z" transform="translate(-351 -2221)"/>
</svg>
